<?xml version="1.0" encoding="utf-8"?>
<!-- Generator: Adobe Illustrator 19.0.0, SVG Export Plug-In . SVG Version: 6.00 Build 0)  -->
<svg version="1.1" id="图层_1" xmlns="http://www.w3.org/2000/svg" xmlns:xlink="http://www.w3.org/1999/xlink" x="0px" y="0px"
	 viewBox="0 0 1024 1024" style="enable-background:new 0 0 1024 1024;" xml:space="preserve">
<path id="XMLID_1_" class="st0" d="M140.7,449.2l243,2.9L619.8,72.2c18.8-34.7,28.8-62.8,62-62.8s41.4,32,32,62.8L594.3,454.5
	l209.6,2.5c0.5,0,1,0,1.4,0l100-133.5c20.6-24.9,26-27.7,31.9-31.4c12.5-7.9,43.2,0.7,32,31.4l-45.1,125.6v125.7l45.1,125.7
	c11.3,30.8-19.4,39.2-32,31.4c-5.9-3.7-11.3-6.5-31.9-31.4L805.3,567c-0.5,0-1,0-1.4,0l-209.6,2.5l119.4,382.3
	c9.4,30.8,1.3,62.8-32,62.8c-33.2,0-43.2-28.1-62-62.8L383.6,572l-243,2.9c-33.2,0-88.3-28.1-88.3-62.8
	C52.3,477.3,107.4,449.2,140.7,449.2z"/>
</svg>
