<?xml version="1.0" encoding="utf-8"?>
<!-- Generator: Adobe Illustrator 19.0.0, SVG Export Plug-In . SVG Version: 6.00 Build 0)  -->
<svg version="1.1" id="图层_1" xmlns="http://www.w3.org/2000/svg" xmlns:xlink="http://www.w3.org/1999/xlink" x="0px" y="0px"
	 viewBox="0 0 1024 1024" style="enable-background:new 0 0 1024 1024;" xml:space="preserve">
<path id="XMLID_5_" class="st0" d="M826.2,635.4c-63.8,0-120.2,31.5-154.6,79.7L379.7,568.7c5.2-17.4,8.1-35.8,8.1-54.9
	c0-17.2-2.3-33.9-6.6-49.8L674,312.3c34.6,46.4,90,76.4,152.3,76.4c104.9,0,190-85.1,190-190s-85.1-190-190-190s-190,85.1-190,190
	c0,7.8,0.5,15.4,1.4,22.9L332.4,379.8c-34.4-34.6-82-56-134.6-56c-104.9,0-190,85.1-190,190s85.1,190,190,190
	c50.6,0,96.5-19.8,130.6-52.1l308.8,154.8c-0.6,6.2-0.9,12.4-0.9,18.8c0,104.9,85.1,190,190,190s190-85.1,190-190
	C1016.2,720.4,931.2,635.4,826.2,635.4z"/>
</svg>
