<?xml version="1.0" encoding="utf-8"?>
<!-- Generator: Adobe Illustrator 19.0.0, SVG Export Plug-In . SVG Version: 6.00 Build 0)  -->
<svg version="1.1" id="图层_1" xmlns="http://www.w3.org/2000/svg" xmlns:xlink="http://www.w3.org/1999/xlink" x="0px" y="0px"
	 viewBox="0 0 1024 1024" style="enable-background:new 0 0 1024 1024;" xml:space="preserve">
<g id="XMLID_1_">
	<path id="XMLID_15_" class="st0" d="M512,266.7c-135.8,0-246.3,110.5-246.3,246.3S376.2,759.3,512,759.3S758.3,648.8,758.3,513
		S647.8,266.7,512,266.7z M512,751.2c-131.4,0-238.2-106.9-238.2-238.2S380.6,274.8,512,274.8c131.4,0,238.2,106.9,238.2,238.2
		S643.3,751.2,512,751.2z"/>
	<rect id="XMLID_16_" x="507.9" y="14.3" class="st0" width="8.1" height="205.9"/>
	
		<rect id="XMLID_17_" x="129.9" y="228.9" transform="matrix(0.7071 0.7071 -0.7071 0.7071 232.904 -96.4558)" class="st0" width="205.9" height="8.1"/>
	<rect id="XMLID_18_" x="14.3" y="508" class="st0" width="205.9" height="8.1"/>
	
		<rect id="XMLID_19_" x="228.9" y="688.1" transform="matrix(-0.7071 -0.7071 0.7071 -0.7071 -161.7903 1515.1953)" class="st0" width="8.1" height="205.9"/>
	<rect id="XMLID_20_" x="508" y="803.7" class="st0" width="8.1" height="205.9"/>
	
		<rect id="XMLID_21_" x="688.1" y="787" transform="matrix(-0.7071 -0.7071 0.7071 -0.7071 791.125 1909.8506)" class="st0" width="205.9" height="8.1"/>
	<rect id="XMLID_22_" x="803.7" y="507.9" class="st0" width="205.9" height="8.1"/>
	
		<rect id="XMLID_23_" x="787" y="129.9" transform="matrix(0.7071 0.7071 -0.7071 0.7071 396.3756 -491.1663)" class="st0" width="8.1" height="205.9"/>
</g>
</svg>
