<?xml version="1.0" encoding="utf-8"?>
<!-- Generator: Adobe Illustrator 19.0.0, SVG Export Plug-In . SVG Version: 6.00 Build 0)  -->
<svg version="1.1" id="图层_1" xmlns="http://www.w3.org/2000/svg" xmlns:xlink="http://www.w3.org/1999/xlink" x="0px" y="0px"
	 viewBox="0 0 1024 1024" style="enable-background:new 0 0 1024 1024;" xml:space="preserve">
<path class="st0" d="M939.1,867.9h-71.2v71.2c0,39.3-31.9,71.2-71.2,71.2s-71.2-31.9-71.2-71.2v-71.2h-71.2
	c-39.3,0-71.2-31.9-71.2-71.2s31.9-71.2,71.2-71.2h71.2v-71.2c0-39.3,31.9-71.2,71.2-71.2s71.2,31.9,71.2,71.2v71.2h71.2
	c39.3,0,71.2,31.9,71.2,71.2S978.4,867.9,939.1,867.9L939.1,867.9z M593.2,593.2c-87.9,26.4-152.4,107-152.4,203.5
	c0,92.8,59.6,171.1,142.4,200.5v13.1H84.9c-39.3,0-71.2-31.9-71.2-71.2c0-142.4,137.6-275.2,278.2-327.7
	C210.7,561.3,156,472.2,156,369.7v-71.2c0-157.3,127.5-284.7,284.7-284.7c157.3,0,284.7,127.5,284.7,284.7v71.2
	c0,33.1-7.5,64-17.9,93.5C653.4,488.8,610.7,534.8,593.2,593.2L593.2,593.2z"/>
</svg>
