<?xml version="1.0" encoding="utf-8"?>
<!-- Generator: Adobe Illustrator 19.0.0, SVG Export Plug-In . SVG Version: 6.00 Build 0)  -->
<svg version="1.1" id="图层_1" xmlns="http://www.w3.org/2000/svg" xmlns:xlink="http://www.w3.org/1999/xlink" x="0px" y="0px"
	 viewBox="0 0 1024 1024" style="enable-background:new 0 0 1024 1024;" xml:space="preserve">
<g>
	<path id="XMLID_5_" class="st0" d="M512,291.2c77.9,0,141-64.1,141-143.3S589.9,4.6,512,4.6S370.9,68.8,370.9,147.9
		S434.2,291.2,512,291.2z"/>
	<path id="XMLID_4_" class="st0" d="M846.7,532.7L656,338.6c-15.7-15.8-33.7-25.3-60.3-25.3h-83.8h-0.1h-85.5
		c-26.6,0-43.5,9.9-58.6,25.3L178.9,530.8c-51.6,52.4,18.2,119.6,69.7,67.2l114-116.6v109.4h149.2h0.1H660v-110l117.1,119.1
		C824.2,650.4,895.9,582.7,846.7,532.7z"/>
	<path id="XMLID_3_" class="st0" d="M659.4,647.5l-112,113.9l82.2,83.4l-84.3,85.7c-49.7,50.5,18.9,122.8,70.4,70.6L749,860.3
		c28.6-29.7,36.6-84.5,5.8-115.7C754.7,744.5,659.4,647.5,659.4,647.5z"/>
	<path id="XMLID_2_" class="st0" d="M392.5,844.9l82.3-83.4l-112-113.9c0,0-95.4,97-95.4,97.1c-30.7,31.2-22.8,85.9,5.7,115.7
		l133.3,140.8c51.5,52.2,120.2-20,70.5-70.6L392.5,844.9z"/>
	<path id="XMLID_1_" class="st1" d="M637.2,629c10.1-10.4,6.5-18.9-8-18.9H392.7c-14.5,0-17.9,8.3-7.5,18.4l110.3,108
		c10.4,10.1,27.2,9.9,37.3-0.5L637.2,629z"/>
</g>
</svg>
