<?xml version="1.0" encoding="utf-8"?>
<!-- Generator: Adobe Illustrator 19.0.0, SVG Export Plug-In . SVG Version: 6.00 Build 0)  -->
<svg version="1.1" id="图层_1" xmlns="http://www.w3.org/2000/svg" xmlns:xlink="http://www.w3.org/1999/xlink" x="0px" y="0px"
	 viewBox="0 0 1024 1024" style="enable-background:new 0 0 1024 1024;" xml:space="preserve">
<path id="XMLID_7_" class="st0" d="M725.4,672.5c58.4-70.3,93.6-160.6,93.6-259.1c0-224-181.6-405.6-405.6-405.6
	C189.4,7.8,7.8,189.3,7.8,413.4c0,224,181.6,405.6,405.6,405.6c98.6,0,188.9-35.2,259.1-93.6l290.8,290.9l52.8-52.8L725.4,672.5z
	 M413.4,776.3c-200.1,0-362.9-162.8-362.9-362.9S213.3,50.5,413.4,50.5s362.9,162.8,362.9,362.9S613.5,776.3,413.4,776.3z"/>
</svg>
