<?xml version="1.0" encoding="utf-8"?>
<!-- Generator: Adobe Illustrator 19.0.0, SVG Export Plug-In . SVG Version: 6.00 Build 0)  -->
<svg version="1.1" id="图层_1" xmlns="http://www.w3.org/2000/svg" xmlns:xlink="http://www.w3.org/1999/xlink" x="0px" y="0px"
	 viewBox="0 0 1024 1024" style="enable-background:new 0 0 1024 1024;" xml:space="preserve">
<path class="st0" d="M917.4,286.6c0.1-25.6,0.2-41.5,0.4-41.5v-99.7c0-55.7-45.1-100.8-100.8-100.8H205
	c-55.7,0-100.8,45.1-100.8,100.8v99.8c0,0.2,0,16.1,0,41.4C48.1,289,3.4,335.2,3.4,391.9v482c0,58.2,47.2,105.4,105.4,105.4h45.8
	c58.2,0,105.4-47.2,105.4-105.4v-2.7h504v2.7c0,58.2,47.2,105.4,105.4,105.4h45.8c58.2,0,105.4-47.2,105.4-105.4v-482
	C1020.6,334.4,974.6,287.8,917.4,286.6z M434.5,803.8c-8.6-48.3-289.3-310.6-289.3-310.6L310.5,431l134.3,134.6
	c84.4-252,351.3-393.5,351.3-393.5c-3.5,129.5,82.7,196.8,82.7,196.8C611.9,456.9,434.5,803.8,434.5,803.8z"/>
</svg>
