<?xml version="1.0" encoding="utf-8"?>
<!-- Generator: Adobe Illustrator 19.0.0, SVG Export Plug-In . SVG Version: 6.00 Build 0)  -->
<svg version="1.1" id="图层_1" xmlns="http://www.w3.org/2000/svg" xmlns:xlink="http://www.w3.org/1999/xlink" x="0px" y="0px"
	 viewBox="0 0 1024 1024" style="enable-background:new 0 0 1024 1024;" xml:space="preserve">
<g>
	<path class="st0" d="M886.3,116.4h-34v108.1c0,39.8-30.5,72.1-68.1,72.1h-68.1c-37.6,0-68.1-32.3-68.1-72.1V116.4H375.9v108.1
		c0,39.8-30.4,72.1-68.1,72.1h-68.1c-37.6,0-68.1-32.3-68.1-72.1V116.4h-34c-37.6,0-68.1,32.3-68.1,72.1v756.8
		c0,39.8,30.5,72.1,68.1,72.1h748.6c37.6,0,68.1-32.3,68.1-72.1V188.5C954.3,148.7,923.9,116.4,886.3,116.4z M886.3,945.4H137.7
		V368.7h748.6V945.4z"/>
	<path class="st0" d="M470.6,679c-12.5,31.3-21.7,77-27.6,123.3h74.2c2.4-33.3,7.2-68.9,14.3-93.3c8.9-31.4,11.5-48.6,26.8-74.1
		c12.7-21.1,38-37.2,56.9-55.3v-67.9H408.5V584h121.7C503,619.7,483.2,647.7,470.6,679z"/>
	<path class="st0" d="M750.2,260.6c37.6,0,68.1-32.3,68.1-72.1V80.4c0-39.8-30.5-72.1-68.1-72.1s-68.1,32.3-68.1,72.1v108.1
		C682.1,228.3,712.6,260.6,750.2,260.6z"/>
	<path class="st0" d="M273.8,260.6c37.6,0,68.1-32.3,68.1-72.1V80.4c0-39.8-30.5-72.1-68.1-72.1s-68.1,32.3-68.1,72.1v108.1
		C205.8,228.3,236.2,260.6,273.8,260.6z"/>
</g>
</svg>
