<?xml version="1.0" encoding="utf-8"?>
<!-- Generator: Adobe Illustrator 19.0.0, SVG Export Plug-In . SVG Version: 6.00 Build 0)  -->
<svg version="1.1" id="图层_1" xmlns="http://www.w3.org/2000/svg" xmlns:xlink="http://www.w3.org/1999/xlink" x="0px" y="0px"
	 viewBox="0 0 1024 1024" style="enable-background:new 0 0 1024 1024;" xml:space="preserve">
<path class="st0" d="M512,1011.1c-275.6,0-499.1-223.4-499.1-499.1C12.9,236.4,236.4,12.9,512,12.9s499.1,223.4,499.1,499.1
	C1011.1,787.6,787.6,1011.1,512,1011.1L512,1011.1z M512,75.3C270.8,75.3,75.3,270.8,75.3,512S270.8,948.7,512,948.7
	S948.7,753.2,948.7,512S753.2,75.3,512,75.3L512,75.3z M512,418.4c-34.5,0-62.4-28-62.4-62.4s27.9-62.4,62.4-62.4
	s62.4,27.9,62.4,62.4S546.4,418.4,512,418.4L512,418.4z M543.2,792.7h-62.4V480.8h62.4V792.7L543.2,792.7z"/>
</svg>
