<?xml version="1.0" encoding="utf-8"?>
<!-- Generator: Adobe Illustrator 19.0.0, SVG Export Plug-In . SVG Version: 6.00 Build 0)  -->
<svg version="1.1" id="图层_1" xmlns="http://www.w3.org/2000/svg" xmlns:xlink="http://www.w3.org/1999/xlink" x="0px" y="0px"
	 viewBox="0 0 1024 1024" style="enable-background:new 0 0 1024 1024;" xml:space="preserve">
<g>
	<path id="XMLID_2_" class="st0" d="M26.1,382.5c-0.3,1.2-0.4,2.5-0.7,3.7h14.8H90h264.7c17.4,0,31.5-14.1,31.5-31.5
		s-14.1-31.4-31.5-31.4H114.3C185,174.5,336.3,71.5,512,71.5c221.8,0,404.9,164.2,435.5,377.6h63.6C980,200.8,768.7,8.6,512,8.6
		c-189.7,0-354.7,105-440.5,259.9V40.1c0-17.4-14.1-31.5-31.4-31.5C22.7,8.6,8.6,22.7,8.6,40.1v314.6c0,3.8,0.9,7.3,2.2,10.7
		c0.4,1.3,1,2.4,1.6,3.6c1,1.8,2.1,3.4,3.4,5C18.6,377.5,22,380.4,26.1,382.5z"/>
	<path id="XMLID_1_" class="st0" d="M1013.3,658.7c-0.5-1.3-1-2.4-1.7-3.6c-1-1.8-2.1-3.4-3.4-5c-2.8-3.5-6.2-6.5-10.3-8.5
		c0.3-1.2,0.4-2.5,0.7-3.7H934h-13H669.3c-17.4,0-31.4,14.1-31.4,31.4s14.1,31.5,31.4,31.5h240.2C838.8,849.4,687.6,952.5,512,952.5
		c-221.9,0-404.9-164.2-435.5-377.5H13c31,248.2,242.4,440.4,499,440.4c189.6,0,354.6-105,440.5-259.9v228.4
		c0,17.4,14.1,31.4,31.5,31.4s31.4-14.1,31.4-31.4V669.3C1015.4,665.5,1014.5,662,1013.3,658.7z"/>
</g>
</svg>