<?xml version="1.0" encoding="utf-8"?>
<!-- Generator: Adobe Illustrator 19.0.0, SVG Export Plug-In . SVG Version: 6.00 Build 0)  -->
<svg version="1.1" id="图层_1" xmlns="http://www.w3.org/2000/svg" xmlns:xlink="http://www.w3.org/1999/xlink" x="0px" y="0px"
	 viewBox="0 0 1024 1024" style="enable-background:new 0 0 1024 1024;" xml:space="preserve">
<g id="XMLID_1_">
	<path id="XMLID_13_" class="st0" d="M511.9,885.1l31.2-39.8c28.2-36,275.7-356.7,275.7-513.5c0-169.2-137.7-306.9-306.9-306.9
		S205,162.6,205,331.8c0,156.8,247.5,477.4,275.7,513.5L511.9,885.1z M511.9,104.1c125.6,0,227.7,102.1,227.7,227.7
		c0,96.3-143.8,310.4-227.7,423.6C428,642.2,284.2,428.2,284.2,331.8C284.2,206.3,386.4,104.1,511.9,104.1z"/>
	<path id="XMLID_16_" class="st0" d="M672.3,331.8c0-88.4-71.9-160.3-160.3-160.3s-160.3,71.9-160.3,160.3s71.9,160.3,160.3,160.3
		S672.3,420.2,672.3,331.8z M430.8,331.8c0-44.7,36.4-81.1,81.1-81.1s81.1,36.4,81.1,81.1S556.7,413,511.9,413
		S430.8,376.6,430.8,331.8z"/>
	<polygon id="XMLID_17_" class="st0" points="899.7,660.4 754.3,658.9 753.5,738.1 831.3,738.9 858.1,919.9 165.6,919.9 
		192.7,732.3 287.8,733.3 288.6,654.1 124.2,652.4 74.1,999.1 949.8,999.1 	"/>
</g>
<path id="XMLID_6_" class="st1" d="M737.1,582.7"/>
<path id="XMLID_4_" class="st1" d="M330.2,582.7"/>
</svg>
