<?xml version="1.0" encoding="utf-8"?>
<!-- Generator: Adobe Illustrator 19.0.0, SVG Export Plug-In . SVG Version: 6.00 Build 0)  -->
<svg version="1.1" id="图层_1" xmlns="http://www.w3.org/2000/svg" xmlns:xlink="http://www.w3.org/1999/xlink" x="0px" y="0px"
	 viewBox="0 0 1024 1024" style="enable-background:new 0 0 1024 1024;" xml:space="preserve">
<path class="st0" d="M301.7,949V226.3c0-82.5,68.3-149.4,152.5-149.4h115.5c84.2,0,152.5,66.9,152.5,149.4V949H301.7L301.7,949z
	 M636.7,219.1c0-36.2-30-65.6-66.9-65.6H454.2c-37,0-66.9,29.4-66.9,65.6v42.2h249.4V219.1L636.7,219.1z M75.2,949
	c-37,0-66.9-29.3-66.9-65.6V326.9c0-36.2,30-65.6,66.9-65.6h136.6V949H75.2L75.2,949z M948.8,949H812.2V261.3h136.6
	c37,0,66.9,29.3,66.9,65.6v556.5C1015.7,919.6,985.7,949,948.8,949L948.8,949z"/>
</svg>
