<?xml version="1.0" encoding="utf-8"?>
<!-- Generator: Adobe Illustrator 19.0.0, SVG Export Plug-In . SVG Version: 6.00 Build 0)  -->
<svg version="1.1" id="图层_1" xmlns="http://www.w3.org/2000/svg" xmlns:xlink="http://www.w3.org/1999/xlink" x="0px" y="0px"
	 viewBox="0 0 1024 1024" style="enable-background:new 0 0 1024 1024;" xml:space="preserve">
<path class="st0" d="M646.4,251.7l-555.8-1.2C44,250.4,6.1,288.7,6,336.1L5.3,686.3c-0.1,47.4,37.6,85.8,84.2,85.9l555.8,1.2
	c105.5,0.2,373.3-206.4,373.4-260.1C1018.8,459.8,756.6,251.9,646.4,251.7z M648.4,482.6c-37.7,13.7-266.7,91.5-345.2,118.2
	C190.1,639.3,156.4,589,156.4,589l-51.7-62.5c29.6-29.4,106,32.4,114.8,39.7c30-10.8,68.4-24.7,109.8-39.5L240,422.5
	c6.4-45.1,131.5,28.2,207.1,62.5c68.8-24.2,133.2-46.4,171.1-58.2C713.7,396.9,694.2,465.9,648.4,482.6z M863.8,557.1
	c-24,0-43.3-19.8-43.3-44.2c0-24.3,19.5-44,43.5-44s43.3,19.8,43.3,44.2S887.8,557.2,863.8,557.1z"/>
</svg>
