<?xml version="1.0" encoding="utf-8"?>
<!-- Generator: Adobe Illustrator 19.0.0, SVG Export Plug-In . SVG Version: 6.00 Build 0)  -->
<svg version="1.1" id="图层_1" xmlns="http://www.w3.org/2000/svg" xmlns:xlink="http://www.w3.org/1999/xlink" x="0px" y="0px"
	 viewBox="0 0 1024 1024" style="enable-background:new 0 0 1024 1024;" xml:space="preserve">
<g id="XMLID_1_">
	<g id="XMLID_2_">
		<path id="XMLID_19_" class="st0" d="M154.6,245c81,0,146.9,65.9,146.9,146.9v186h420.9v-186c0-81,65.9-146.9,146.9-146.9h45.8
			c0.9,0,1.8,0.1,2.7,0.1v-99.7c0-55.7-45.1-100.8-100.8-100.8H205c-55.7,0-100.8,45.1-100.8,100.8v99.8c1.5,0,3-0.2,4.6-0.2H154.6z
			"/>
	</g>
	<g id="XMLID_7_">
		<path id="XMLID_18_" class="st0" d="M915.2,286.6h-45.8c-58.2,0-105.4,47.2-105.4,105.4v228.2H260V391.9
			c0-58.2-47.2-105.4-105.4-105.4h-45.8c-58.2,0-105.4,47.2-105.4,105.4v482c0,58.2,47.2,105.4,105.4,105.4h45.8
			c58.2,0,105.4-47.2,105.4-105.4v-2.7h504v2.7c0,58.2,47.2,105.4,105.4,105.4h45.8c58.2,0,105.4-47.2,105.4-105.4v-482
			C1020.6,333.7,973.4,286.6,915.2,286.6z"/>
	</g>
</g>
</svg>
