<?xml version="1.0" encoding="utf-8"?>
<!-- Generator: Adobe Illustrator 19.0.0, SVG Export Plug-In . SVG Version: 6.00 Build 0)  -->
<svg version="1.1" id="图层_1" xmlns="http://www.w3.org/2000/svg" xmlns:xlink="http://www.w3.org/1999/xlink" x="0px" y="0px"
	 viewBox="0 0 1024 1024" style="enable-background:new 0 0 1024 1024;" xml:space="preserve">
<g id="XMLID_2_">
	<path id="XMLID_5_" class="st0" d="M119.7,512.2c0-249,203.7-452.1,460.3-464.7c-9.4-0.3-18.6-0.6-28-0.6
		c-297.2,0-538.3,208.4-538.3,465.3s241.1,465,538.3,465c9.4,0,18.6,0,28-0.6C323.4,963.9,119.7,760.9,119.7,512.2L119.7,512.2z"/>
	<path id="XMLID_4_" class="st0" d="M599.8,129c-9.4,0-18.6,0.6-28,0.9c186.7,13.5,334,179.4,334,382.2
		c0,202.7-147.3,368.6-334,382.2c9.4,0.6,18.6,0.9,28,0.9c226.7,0,410.5-171.6,410.5-383.1S826.5,129,599.8,129L599.8,129z"/>
	<path id="XMLID_3_" class="st0" d="M564.3,475.9c0,0-20.8,20.1-0.6,46.6c19.8,26.4,42.2,12.9,45,11L750,424c0,0,23-19.2,0.6-49.1
		c0,0-106.1-181.3-281.8-77.1l-139.8,68.3c0,0-181,70.8-80,204.3c0,0,19.8,29,48.5,47.2c0,0,141.7,115.2,161.2,125
		c0,0,116.5,63.6,204.6-29.9c0,0,163.4-181.6,177.2-215.3c0,0,6.6-13.9,6-28c0,0-9.8-40-59.5,5.4c0,0-73.4,80.9-110.2,116.8
		c0,0-43.8,57-102,17.3c0,0-29.3-13.9-136.3-116.2c0,0-46.9-42.8-15.7-80.3c0,0,108.9-96.6,170.6-55.7c0,0,27.7,17,43.1,29.9
		c0,0,22.4,17-0.6,34.6L564.3,475.9L564.3,475.9z"/>
</g>
</svg>
