<?xml version="1.0" encoding="utf-8"?>
<!-- Generator: Adobe Illustrator 19.0.0, SVG Export Plug-In . SVG Version: 6.00 Build 0)  -->
<svg version="1.1" id="图层_1" xmlns="http://www.w3.org/2000/svg" xmlns:xlink="http://www.w3.org/1999/xlink" x="0px" y="0px"
	 viewBox="0 0 1024 1024" style="enable-background:new 0 0 1024 1024;" xml:space="preserve">
<g id="XMLID_2_">
	<path id="XMLID_3_" class="st0" d="M843.3,1010c-41.2-6.4-75.9-9-144.1-9h-377c-61.8,0-97.8,1.3-141.5,3.9
		c7.7-48.9,10.3-87.5,10.3-153.1V165.9c0-55.3-2.6-90.1-10.3-146.7c45,2.6,79.8,3.9,141.5,3.9h366.7c56.6,0,100.4-2.6,144.1-9v108.1
		c-45-6.4-79.8-9-144.1-9H292.6v329.4H631c56.6,0,95.2-2.6,144.1-9v108.1c-43.7-6.4-77.2-9-144.1-9H292.6v378.3h407.9
		c59.2,0,95.2-2.6,142.8-9V1010z"/>
</g>
</svg>
