<?xml version="1.0" encoding="utf-8"?>
<!-- Generator: Adobe Illustrator 19.0.0, SVG Export Plug-In . SVG Version: 6.00 Build 0)  -->
<svg version="1.1" id="图层_1" xmlns="http://www.w3.org/2000/svg" xmlns:xlink="http://www.w3.org/1999/xlink" x="0px" y="0px"
	 viewBox="0 0 1024 1024" style="enable-background:new 0 0 1024 1024;" xml:space="preserve">
<path class="st0" d="M512,176.5c-46.7,0-84.6-37.4-84.6-83.5S465.3,9.5,512,9.5s84.5,37.4,84.5,83.5
	C596.6,139.1,558.7,176.5,512,176.5L512,176.5z M643,557.8l-5.9-234.5h-17.4v641.9c0,66.6-92.6,64.7-92.6,0l-5.8-372.6H503l-6,372.6
	c0,64.7-92.6,66.6-92.6,0V323.3H387l-5.8,234.5c0,49.8-68.1,49.8-68.1,0V301.4c0-87.6,26.6-108.4,108.1-108.4l90.8,0.1l90.9-0.1
	c81.4,0,107.9,20.7,107.9,108.4v256.4C710.9,607.5,643,607.5,643,557.8L643,557.8z"/>
</svg>
