<?xml version="1.0" encoding="utf-8"?>
<!-- Generator: Adobe Illustrator 19.0.0, SVG Export Plug-In . SVG Version: 6.00 Build 0)  -->
<svg version="1.1" id="图层_1" xmlns="http://www.w3.org/2000/svg" xmlns:xlink="http://www.w3.org/1999/xlink" x="0px" y="0px"
	 viewBox="0 0 1024 1024" style="enable-background:new 0 0 1024 1024;" xml:space="preserve">
<style type="text/css">
	.logo_st0{fill-rule:evenodd;clip-rule:evenodd;fill:#E5004F;}
	.logo_st1{fill-rule:evenodd;clip-rule:evenodd;fill:#EE7800;}
	.logo_st2{fill-rule:evenodd;clip-rule:evenodd;fill:#FABE00;}
	.logo_st3{fill-rule:evenodd;clip-rule:evenodd;fill:#0068B7;}
	.logo_st4{fill-rule:evenodd;clip-rule:evenodd;fill:#00ADA9;}
	.logo_st5{fill-rule:evenodd;clip-rule:evenodd;fill:#6FBA2C;}
	.logo_st6{fill-rule:evenodd;clip-rule:evenodd;fill:#ABCD03;}
</style>
<g>
	<g>
		<path id="XMLID_7_" class="logo_st0" d="M11.8,432.4c289.4-28.8,369.5,349.9,651.6,237.1C401.7,845.4,258.7,474.9,11.8,432.4z"/>
		<path id="XMLID_6_" class="logo_st1" d="M139,432.1c91.6-9.1,154.7,22,225.9,84.4l41.7,36.6c81.2,71.1,131.4,116.1,247.3,82.9
			c-100.5,60.3-192.2,15.7-272.1-54.2l-41.7-36.5C279.6,492.2,215.8,445.9,139,432.1z"/>
		<path id="XMLID_5_" class="logo_st2" d="M255.5,431.8c75.2-7.5,126.9,18.1,185.4,69.2l34.3,30c61.2,53.6,90.8,90.2,176.4,78.6
			c-71.6,29.1-134.1-0.3-196.7-55.1l-34.2-30C370.8,481.1,318.5,443.1,255.5,431.8z"/>
		<path id="XMLID_4_" class="logo_st3" d="M1012.2,591.5c-289.2,28.8-369.2-349.6-651.3-237C622.5,178.6,765.4,549,1012.2,591.5z"/>
		<path id="XMLID_3_" class="logo_st4" d="M885,591.8c-91.6,9.1-154.7-22-225.9-84.4l-41.7-36.6C536,399.7,485.9,354.7,370,387.9
			c100.5-60.3,192.2-15.7,272.1,54.2l41.7,36.5C744.3,531.7,808.2,577.9,885,591.8z"/>
		<path id="XMLID_2_" class="logo_st5" d="M768.5,592c-75.2,7.5-126.9-18.1-185.4-69.2l-34.3-30c-61.2-53.6-90.8-90.2-176.4-78.6
			c71.6-29.1,134.1,0.3,196.7,55.1l34.2,30C653.1,542.7,705.5,580.7,768.5,592z"/>
		<path id="XMLID_1_" class="logo_st6" d="M355.9,432.7c136.5-23.3,177.9,149.3,312.3,161C528,620.3,472.3,441.5,355.9,432.7z"/>
	</g>
</g>
</svg>
