<?xml version="1.0" encoding="utf-8"?>
<!-- Generator: Adobe Illustrator 19.0.0, SVG Export Plug-In . SVG Version: 6.00 Build 0)  -->
<svg version="1.1" id="图层_1" xmlns="http://www.w3.org/2000/svg" xmlns:xlink="http://www.w3.org/1999/xlink" x="0px" y="0px"
	 viewBox="0 0 1024 1024" style="enable-background:new 0 0 1024 1024;" xml:space="preserve">
<path id="XMLID_6_" class="st0" d="M512,18.7C239.5,18.7,18.7,239.5,18.7,512s220.9,493.3,493.3,493.3
	c272.5,0,493.3-220.9,493.3-493.3C1005.3,239.5,784.5,18.7,512,18.7z M782.5,395.3L440.8,734.8L209.4,512.6
	c-20.9-20-21.6-53.2-1.5-74.1c20-20.9,53.2-21.6,74.1-1.5l157.6,151.3l269.1-267.4c20.5-20.4,53.7-20.3,74.1,0.2
	C803.1,341.7,803,374.9,782.5,395.3z"/>
</svg>
