<?xml version="1.0" encoding="utf-8"?>
<!-- Generator: Adobe Illustrator 19.0.0, SVG Export Plug-In . SVG Version: 6.00 Build 0)  -->
<svg version="1.1" id="图层_1" xmlns="http://www.w3.org/2000/svg" xmlns:xlink="http://www.w3.org/1999/xlink" x="0px" y="0px"
	 viewBox="0 0 1024 1024" style="enable-background:new 0 0 1024 1024;" xml:space="preserve">
<style type="text/css">
	.bank0{fill:#D23532;}
	.bank1{fill:#034582;}
	.bank2{fill:#107C85;}
	.bank3{fill-rule:evenodd;clip-rule:evenodd;fill:#FFFFFF;}
	.bank4{fill:#FFFFFF;}
</style>
<g>
	<path id="XMLID_27_" class="bank0" d="M207.6,199h249.8c34.9,0,56.6,28.4,48.4,63.4L389.5,761.7c-8.2,34.9-43.1,63.3-78,63.3H61.7
		c-34.9,0-56.6-28.4-48.4-63.3l116.4-499.3C137.8,227.4,172.7,199,207.6,199"/>
	<path id="XMLID_26_" class="bank1" d="M436.6,199h287.3c34.9,0,19.1,28.4,10.9,63.4L618.5,761.7c-8.2,34.9-5.6,63.3-40.5,63.3H290.8
		c-34.9,0-56.6-28.4-48.4-63.3l116.3-499.3C366.9,227.4,401.7,199,436.6,199"/>
	<path id="XMLID_25_" class="bank2" d="M712.5,199h249.7c34.9,0,56.6,28.4,48.4,63.4L894.4,761.7c-8.2,34.9-43.1,63.3-78,63.3H566.6
		c-34.9,0-56.6-28.4-48.4-63.3l116.2-499.3C642.6,227.4,677.5,199,712.5,199"/>
	<path class="bank3" d="M670.8,668.7h23.6l6.8-22.6h-23.5L670.8,668.7z M689.6,606.2l-8.1,26.8c0,0,9-4.6,13.8-6
		c4.8-1.1,12.2-2,12.2-2l5.7-18.7H689.6z M701.3,567.6l-7.8,25.7c0,0,8.7-3.9,13.5-5.3c4.8-1.3,12.1-1.7,12.1-1.7l5.6-18.7H701.3z
		 M753.4,567.6l-30.4,100.8h8.2l-6.3,20.8h-8.2l-1.9,6.5h-29l2-6.5h-58.9l5.9-19.3h5.9l30.9-102.3l6.2-20.7h29.5l-3.1,10.4
		c0,0,7.9-5.7,15.3-7.6c7.4-2,50.3-2.7,50.3-2.7l-6.3,20.5H753.4z"/>
	<path id="XMLID_20_" class="bank4" d="M766.4,547.2H798l0.4,11.8c-0.2,2,1.5,2.9,5.2,2.9h6.4l-5.9,19.4h-17
		c-14.8,1.1-20.4-5.3-20-12.4L766.4,547.2z"/>
	<path id="XMLID_19_" class="bank4" d="M770.6,639.2h-30l5.1-17.3H780l4.9-15.8H751l5.8-19.5h94.4l-5.9,19.5h-31.7l-5,15.8h31.7
		l-5.2,17.3h-34.4l-6.1,7.3h13.9l3.4,21.8c0.4,2.1,0.4,3.5,1.1,4.5c0.7,0.8,4.9,1.2,7.3,1.2h4.2l-6.4,21.2h-10.7
		c-1.7,0-4.1-0.1-7.5-0.3c-3.2-0.3-5.5-2.2-7.7-3.2c-2-1-4.9-3.4-5.6-7.4l-3.3-21.7l-15.6,21.4c-4.9,6.8-11.7,11.9-23,11.9H723
		l5.7-18.9h8.4c2.4,0,4.6-0.9,6.1-1.8c1.6-0.7,3.1-1.5,4.6-3.9L770.6,639.2z"/>
	<path id="XMLID_18_" class="bank4" d="M441.3,591.9h79.6l-5.9,19h-31.9l-5,16.2h32.6l-5.9,19.6h-32.6l-7.9,26.3
		c-1,2.9,7.7,3.3,10.8,3.3l16.3-2.2l-6.5,21.7h-36.7c-2.9,0-5.2-0.4-8.3-1.1c-3.1-0.8-4.5-2.2-5.8-4.3c-1.3-2.2-3.4-3.9-2-8.5
		l10.5-34.9h-18.1l6-19.9h18.2l4.8-16.2h-18.1L441.3,591.9z"/>
	<path id="XMLID_17_" class="bank4" d="M494.9,557.8h32.7l-6,19.8H477l-4.8,4.2c-2.1,2-2.8,1.2-5.5,2.6c-2.5,1.3-7.8,3.8-14.7,3.8
		h-14.3l5.8-19.1h4.3c3.6,0,6.1-0.3,7.3-1.1c1.4-0.9,3-2.9,4.8-6.2l8.2-14.9h32.5L494.9,557.8z"/>
	<path class="bank3" d="M557.6,590.4c0,0,8.9-8.1,24.2-10.8c3.4-0.7,25.2-0.5,25.2-0.5l3.3-10.9h-45.9L557.6,590.4z M600.7,598.8H555
		l-2.8,9.2h39.5c4.6-0.6,5.6,0.1,6-0.1L600.7,598.8z M541.6,547.2h27.8l-4,14c0,0,8.8-7,15-9.5c6.1-2.3,20-4.4,20-4.4l45-0.2
		L630,598.1c-2.6,8.8-5.6,14.4-7.5,17c-1.7,2.7-3.7,4.8-7.6,7c-3.8,2-7.3,3.2-10.4,3.5c-3,0.2-7.6,0.3-13.9,0.4h-43.3L535,666.4
		c-1.2,4-1.7,5.9-0.9,7c0.6,1,2.1,2.1,4.1,2.1l19.1-1.8l-6.5,22.2h-21.4c-6.8,0-11.8-0.2-15.3-0.4c-3.3-0.3-6.7,0-9-1.8
		c-2-1.8-5.1-4-5-6.4c0.2-2.2,1.1-5.8,2.5-10.8L541.6,547.2z"/>
	<path id="XMLID_13_" class="bank4" d="M622.7,629.6l-2.6,12.3c-1.1,3.8-2.1,6.7-5,9.2c-3,2.6-6.6,5.3-15,5.3l-15.4,0.6l-0.1,13.9
		c-0.2,4,0.8,3.5,1.5,4.2c0.7,0.7,1.3,1,2,1.2l4.9-0.2l14.7-0.9l-6,20.3h-16.9c-11.9,0-20.6-0.3-23.5-2.6c-2.8-1.8-3.2-4.1-3.2-7.9
		l1.1-54.1h27l-0.4,11.1h6.5c2.2,0,3.7-0.2,4.6-0.8c0.8-0.6,1.4-1.5,1.9-2.8l2.6-8.7H622.7z"/>
	<path id="XMLID_12_" class="bank4" d="M237.2,358.5c-1,4.4-18.3,84.4-18.4,84.4c-3.7,16.2-6.4,27.8-15.6,35.2
		c-5.3,4.3-11.4,6.4-18.4,6.4c-11.4,0-18-5.6-19.2-16.4l-0.2-3.7c0,0,3.5-21.7,3.5-21.8c0,0,18.2-72.9,21.5-82.5
		c0.1-0.6,0.2-0.8,0.3-1.1c-35.4,0.3-41.7,0-42.1-0.6c-0.2,0.7-1.2,5.2-1.2,5.2l-18.6,82.1l-1.6,7l-3,22.8c0,6.7,1.3,12.3,3.9,17
		c8.5,14.8,32.6,17,46.3,17c17.6,0,34.1-3.8,45.2-10.5c19.3-11.5,24.4-29.4,29-45.3l2.1-8.1c0,0,18.7-75.7,21.9-85.6
		c0.1-0.6,0.2-0.8,0.3-1.1C247.1,359.3,239.6,359,237.2,358.5"/>
	<path id="XMLID_11_" class="bank4" d="M340.8,508.8c-12.6-0.2-17-0.2-31.7,0.5l-0.6-1.1c1.3-5.6,2.7-11.1,3.9-16.8l1.8-7.6
		c2.7-11.9,5.4-25.7,5.7-29.9c0.3-2.6,1.1-8.9-6.1-8.9c-3.1,0-6.2,1.5-9.5,3c-1.8,6.3-5.3,24.1-7,32.2c-3.6,17-3.9,19-5.5,27.4
		l-1.1,1.1c-12.9-0.2-17.4-0.2-32.3,0.5l-0.7-1.2c2.5-10.2,5-20.4,7.4-30.5c6.3-27.5,7.7-38,9.5-52l1.2-0.8c14.5-2,18-2.4,33.8-5.7
		l1.3,1.5l-2.4,8.8c2.7-1.6,5.2-3.2,7.9-4.6c7.4-3.6,15.6-4.7,20.2-4.7c6.9,0,14.4,1.9,17.5,9.9c3,7.1,1,15.9-2.9,33.1l-2,8.8
		c-4,19.2-4.7,22.7-6.9,35.9L340.8,508.8z"/>
	<path id="XMLID_10_" class="bank4" d="M391.9,508.8c-7.6,0-12.4-0.2-17.2,0c-4.8,0-9.3,0.3-16.4,0.6l-0.4-0.6l-0.5-0.6
		c1.9-7.3,3-9.8,3.9-12.4c1-2.6,1.9-5.2,3.6-12.6c2.2-9.6,3.6-16.3,4.5-22.2c1-5.7,1.6-10.6,2.3-16.2l0.6-0.4l0.6-0.5
		c7.5-1.1,12.3-1.8,17.2-2.5c4.9-0.7,9.9-1.7,17.7-3.2l0.3,0.7l0.2,0.7c-1.5,6-2.9,11.9-4.4,18c-1.4,6-2.8,12-4.2,17.9
		c-2.8,12.7-3.9,17.4-4.6,20.8c-0.6,3.2-0.8,5-2,11.6l-0.7,0.6L391.9,508.8z"/>
	<path class="bank4" d="M471.8,464.1c-0.7,3.2-3.5,15.4-7.4,20.5c-2.7,3.7-5.9,6-9.4,6c-1,0-7.2,0-7.3-9.2c-0.1-4.6,0.8-9.3,2-14.3
		c3.3-14.6,7.2-26.9,17.2-26.9C474.8,440.3,475.3,449.5,471.8,464.1 M504.7,465.5c4.4-19.3,1.1-28.4-3.3-33.9
		c-6.6-8.4-18.1-11.1-30.1-11.1c-7.2,0-24.3,0.7-37.8,13.1c-9.6,8.9-14.1,21-16.8,32.6c-2.7,11.8-5.8,33.2,13.7,41.1
		c6.1,2.6,14.7,3.3,20.4,3.3c14.4,0,29.1-4,40.1-15.7C499.5,485.5,503.4,471.3,504.7,465.5"/>
	<path class="bank4" d="M831.3,421.5c-15.7,2.9-19.9,3.5-34.9,5.6l-1.1,1c-0.2,1.2-0.3,2.4-0.5,3.5c-2.3-3.8-5.7-7-11-9
		c-6.7-2.6-22.5,0.8-35.9,13.1c-9.6,8.9-14.1,20.9-16.8,32.4c-2.7,11.6-5.8,32.9,13.6,40.5c6.2,2.6,11.8,3.4,17.4,3.2
		c6-0.3,11.5-3.3,16.6-7.6c-0.5,1.8-0.9,3.5-1.4,5.3l0.9,1.1c14-0.6,18.4-0.6,33.5-0.5l1.4-1.1c2.2-13,4.3-25.7,10.1-50.6
		c2.7-11.9,5.6-23.8,8.5-35.6L831.3,421.5z M781.6,486.2c-2.6,3.6-8.7,5.9-12.2,5.9c-1,0-7.1,0-7.4-9.1c0-4.5,0.9-9.2,2-14.3
		c3.3-14.3,7.2-26.5,17.2-26.5c6.3,0,9.6,5.8,8.9,15.8c-0.5,2.5-1.1,5.1-1.8,8c-1,4.3-2.1,8.5-3.2,12.8
		C784.2,481.7,783,484.4,781.6,486.2"/>
	<path id="XMLID_5_" class="bank4" d="M590.5,508.8c-12.6-0.2-16.9-0.2-31.7,0.5l-0.6-1.1c1.2-5.6,2.7-11.1,4-16.8l1.7-7.6
		c2.7-11.9,5.4-25.7,5.7-29.9c0.2-2.6,1.1-8.9-6.1-8.9c-3.1,0-6.3,1.5-9.5,3c-1.8,6.3-5.4,24.1-7.1,32.2c-3.6,17-3.8,19-5.4,27.4
		l-1.1,1.1c-12.9-0.2-17.4-0.2-32.3,0.5l-0.7-1.2c2.5-10.2,4.9-20.4,7.3-30.5c6.2-27.5,7.7-38,9.4-52l1.2-0.8
		c14.5-2,18.1-2.4,33.8-5.7l1.3,1.5l-2.3,8.8c2.6-1.6,5.2-3.2,7.9-4.6c7.3-3.6,15.7-4.7,20.1-4.7c6.9,0,14.4,1.9,17.7,9.9
		c2.9,7.1,1,15.9-3,33.1l-2,8.8c-4.1,19.2-4.7,22.7-6.9,35.9L590.5,508.8z"/>
	<path class="bank4" d="M699.4,358.4c0,0-10.4,0.1-10.4,0.1c-27.2,0.3-38.1,0.2-42.5-0.3c-0.4,2-1.2,5.5-1.2,5.5s-9.7,45.1-9.7,45.1
		c0,0-23.3,95.9-24.4,100.4c23.7-0.3,33.4-0.3,37.5,0.1c0.9-4.5,6.4-31.2,6.5-31.2c0,0,4.7-19.7,5-20.4c0,0,1.5-2,3-2.8h2.1
		c20.4,0,43.6,0,61.6-13.4c12.3-9.1,20.8-22.6,24.5-38.9c1-4,1.7-8.8,1.7-13.6c0-6.3-1.3-12.5-4.9-17.3
		C739,358.7,720.6,358.5,699.4,358.4 M713,405.3c-2.2,10-8.7,18.4-17,22.5c-6.9,3.5-15.3,3.7-24,3.7h-5.6l0.4-2.2
		c0,0,10.4-45,10.3-44.9l0.2-2.3l0.2-1.8l4.1,0.4c0,0,21.3,1.8,21.9,1.9C711.9,385.9,715.4,394.3,713,405.3"/>
	<path id="XMLID_2_" class="bank4" d="M405.7,431.7c8.3-5.8,9.3-13.8,2.3-17.9c-7.1-4.1-19.5-2.9-27.9,2.9c-8.4,5.7-9.3,13.7-2.3,17.9
		C384.9,438.7,397.3,437.5,405.7,431.7"/>
	<path id="XMLID_1_" class="bank4" d="M936,421.3l-1.2-1.3c-15.5,3.1-18.3,3.6-32.5,5.5l-1.1,1c-0.1,0.2-0.1,0.5-0.1,0.7l-0.1-0.2
		c-10.6,24.5-10.3,19.2-18.9,38.5c0-0.9-0.1-1.5-0.1-2.4l-2.2-41.8l-1.3-1.3c-16.2,3.1-16.7,3.6-31.6,5.5l-1.2,1
		c-0.1,0.5-0.1,1.1-0.2,1.7l0.1,0.2c1.9,9.6,1.4,7.4,3.3,22.5c0.9,7.4,2,14.9,2.9,22.2c1.5,12.3,2.4,18.3,4.1,37
		c-10.1,16.8-12.5,23.1-22.2,37.8l0,0.1l-6.9,10.9c-0.8,1.1-1.5,1.9-2.5,2.2c-1.1,0.6-2.6,0.7-4.6,0.7h-3.8l-5.7,18.8l19.5,0.3
		c11.4-0.1,18.5-5.4,22.4-12.5l12.2-20.9H864l1.3-1.5C873.6,528.5,936,421.3,936,421.3"/>
</g>
</svg>
