<?xml version="1.0" encoding="utf-8"?>
<!-- Generator: Adobe Illustrator 19.0.0, SVG Export Plug-In . SVG Version: 6.00 Build 0)  -->
<svg version="1.1" id="图层_1" xmlns="http://www.w3.org/2000/svg" xmlns:xlink="http://www.w3.org/1999/xlink" x="0px" y="0px"
	 viewBox="0 0 1024 1024" style="enable-background:new 0 0 1024 1024;" xml:space="preserve">
<path class="st0" d="M887.3,450.1l-243,2.9L408.2,73.1c-18.8-34.7-28.8-62.8-62-62.8s-41.4,32-32,62.8l119.5,382.3l-209.6,2.5
	c-0.5,0-1,0-1.4,0l-100-133.5c-20.6-24.9-26-27.7-31.9-31.4c-12.5-7.9-43.2,0.7-32,31.4L103.9,450v125.7L58.8,701.4
	c-11.3,30.8,19.4,39.2,32,31.4c5.9-3.7,11.3-6.5,31.9-31.4l100-133.5c0.5,0,1,0,1.4,0l209.6,2.5L314.3,952.7
	c-9.4,30.8-1.3,62.8,32,62.8c33.2,0,43.2-28.1,62-62.8l236.1-379.8l243,2.9c33.2,0,88.3-28.1,88.3-62.8
	C975.7,478.2,920.6,450.1,887.3,450.1z"/>
</svg>
