<?xml version="1.0" encoding="utf-8"?>
<!-- Generator: Adobe Illustrator 19.0.0, SVG Export Plug-In . SVG Version: 6.00 Build 0)  -->
<svg version="1.1" id="图层_1" xmlns="http://www.w3.org/2000/svg" xmlns:xlink="http://www.w3.org/1999/xlink" x="0px" y="0px"
	 viewBox="0 0 1024 1024" style="enable-background:new 0 0 1024 1024;" xml:space="preserve">
<path class="st0" d="M1017.3,942.2C1017.3,942.3,1017.3,942.3,1017.3,942.2c0,25.5-21.2,46.1-47.4,46.1H54
	c-26.2,0-47.4-20.6-47.4-46v-0.1l0,0c0,0,0-167.7,126.2-228.7c79.8-38.6,49.1-7.3,147.1-46.8c98-39.4,121.2-53.2,121.2-53.2
	l0.9-90.9c0,0-36.7-27.3-48.1-112.8c-23,6.4-30.6-26.2-31.9-47c-1.2-20.1-13.3-82.8,14.7-77.1c-5.7-41.9-9.9-79.6-7.8-99.6
	c7-70.2,76.6-143.6,183.8-148.9c126.2,5.4,176.1,78.7,183.1,148.9c2,20-2.5,57.8-8.2,99.6c28-5.6,15.8,57,14.5,77.1
	c-1.2,20.8-9,53.3-31.9,46.9c-11.4,85.5-48.1,112.6-48.1,112.6l0.9,90.4c0,0,23.2,12.9,121.2,52.3c98,39.5,67.3,10,147.1,48.5
	C1017.4,774.5,1017.4,942.2,1017.3,942.2L1017.3,942.2L1017.3,942.2z"/>
</svg>
