<?xml version="1.0" encoding="utf-8"?>
<!-- Generator: Adobe Illustrator 19.0.0, SVG Export Plug-In . SVG Version: 6.00 Build 0)  -->
<svg version="1.1" id="图层_1" xmlns="http://www.w3.org/2000/svg" xmlns:xlink="http://www.w3.org/1999/xlink" x="0px" y="0px"
	 viewBox="0 0 1024 1024" style="enable-background:new 0 0 1024 1024;" xml:space="preserve">
<g id="XMLID_2_">
	<polygon id="XMLID_4_" class="st0" points="637.8,470.1 889.4,470.1 889.4,386.3 679.7,386.3 679.7,176.7 386.2,176.7 218.5,403.7 
		260.4,445.7 428.2,278 512,278 386.2,512 386.2,763.4 134.6,763.4 134.6,847.3 470.1,847.3 470.1,595.8 637.8,739 637.8,1014.9 
		721.6,1014.9 721.6,679.6 553.9,529.5 595.8,428.2 	"/>
	<path id="XMLID_3_" class="st0" d="M721.6,176.7c46.3,0,83.9-37.6,83.9-83.8S767.9,9.1,721.6,9.1c-46.3,0-83.8,37.6-83.8,83.8
		S675.3,176.7,721.6,176.7z"/>
</g>
</svg>
