<?xml version="1.0" encoding="utf-8"?>
<!-- Generator: Adobe Illustrator 19.0.0, SVG Export Plug-In . SVG Version: 6.00 Build 0)  -->
<svg version="1.1" id="图层_1" xmlns="http://www.w3.org/2000/svg" xmlns:xlink="http://www.w3.org/1999/xlink" x="0px" y="0px"
	 viewBox="214 -92.1 1024 1024" style="enable-background:new 214 -92.1 1024 1024;" xml:space="preserve">
<style type="text/css">
	.siteCould{fill:#FFFFFF;stroke:#8E8E8E;stroke-width:10;stroke-miterlimit:10;}
</style>
<g id="XMLID_1_">
	<g id="XMLID_2_">
		<path id="XMLID_20_" class="siteCould" d="M1031.2-47.5H419c-55.7,0-100.8,45.1-100.8,100.8v99.8c1.5,0,3-0.2,4.6-0.2h45.8
			c81,0,146.9,65.9,146.9,146.9v186h420.9v-186c0-81,65.9-146.9,146.9-146.9h45.8c0.9,0,1.8,0.1,2.7,0.1V53.3
			C1132-2.3,1086.8-47.5,1031.2-47.5L1031.2-47.5z"/>
	</g>
	<g id="XMLID_7_">
		<path id="XMLID_16_" class="siteCould" d="M1129.2,194.5h-45.8c-58.2,0-105.4,47.2-105.4,105.4v228.2H474V299.8
			c0-58.2-47.2-105.4-105.4-105.4h-45.8c-58.2,0-105.4,47.2-105.4,105.4v482c0,58.2,47.2,105.4,105.4,105.4h45.8
			c58.2,0,105.4-47.2,105.4-105.4v-2.7h504v2.7c0,58.2,47.2,105.4,105.4,105.4h45.8c58.2,0,105.4-47.2,105.4-105.4v-482
			C1234.6,241.6,1187.4,194.5,1129.2,194.5L1129.2,194.5z"/>
	</g>
</g>
</svg>
