<?xml version="1.0" encoding="utf-8"?>
<!-- Generator: Adobe Illustrator 19.0.0, SVG Export Plug-In . SVG Version: 6.00 Build 0)  -->
<svg version="1.1" id="图层_1" xmlns="http://www.w3.org/2000/svg" xmlns:xlink="http://www.w3.org/1999/xlink" x="0px" y="0px"
	 viewBox="0 0 1024 1024" style="enable-background:new 0 0 1024 1024;" xml:space="preserve">
<path class="st0" d="M884.5,324.6v499.7c0,103.5-83.4,187.4-186.3,187.4H325.8c-102.9,0-186.3-83.9-186.3-187.4V324.6
	c-34.3,0-62.1-28-62.1-62.4c0-34.5,27.8-62.5,62.1-62.5h186.3c0-103.5,83.4-187.4,186.2-187.4s186.2,83.9,186.2,187.4h186.3
	c34.3,0,62.1,28,62.1,62.5C946.6,296.6,918.8,324.6,884.5,324.6L884.5,324.6z M512,137.2c-34.3,0-62.1,28-62.1,62.5h124.2
	C574.1,165.2,546.3,137.2,512,137.2L512,137.2z M760.3,324.6H263.7v499.7c0,34.5,27.8,62.5,62.1,62.5h372.4
	c34.3,0,62.1-28,62.1-62.5V324.6L760.3,324.6z M636.1,387.1h62.1v437.3h-62.1V387.1L636.1,387.1z M449.9,387.1h124.2v437.3H449.9
	V387.1L449.9,387.1z M325.8,387.1h62.1v437.3h-62.1V387.1L325.8,387.1z"/>
</svg>
