<?xml version="1.0" encoding="utf-8"?>
<!-- Generator: Adobe Illustrator 19.0.0, SVG Export Plug-In . SVG Version: 6.00 Build 0)  -->
<svg version="1.1" id="图层_1" xmlns="http://www.w3.org/2000/svg" xmlns:xlink="http://www.w3.org/1999/xlink" x="0px" y="0px"
	 viewBox="0 0 1024 1024" style="enable-background:new 0 0 1024 1024;" xml:space="preserve">
<style type="text/css">
	.alipay0{fill-rule:evenodd;clip-rule:evenodd;fill:#259DC1;}
	.alipay1{fill-rule:evenodd;clip-rule:evenodd;fill:#00A0E9;}
	.alipay2{fill-rule:evenodd;clip-rule:evenodd;fill:#FFFFFF;}
</style>
<g>
	<path id="XMLID_4_" class="alipay0" d="M835.6,639.2c144.3,48.2,177,50.8,177,50.8l0-517.2c0-88.3-71.8-159.9-160.3-159.9H171.8
		c-88.6,0-160.4,71.6-160.4,159.9v678.4c0,88.3,71.8,160,160.4,160h680.4c88.5,0,160.3-71.7,160.3-160l0-6.9
		c0,0-260.5-108.3-392.1-171.4c-88.3,108.4-202.1,174-320.3,174c-117,0-200.6-68.4-210.1-140.2c0,0.1,0,0.4,0,0.4
		c0,0-25.7-74.3,37.1-149.3c20.8-24.9,55.8-49,110.3-62.4c85.2-20.8,220.8,13.1,347.8,54.9c22.9-42,42.1-88.2,56.4-137.5H250v-39.6
		H452v-70.9H207.3v-39.6H452V161.5c0,0,0-17.1,17.3-17.1l98.8,0v118.2h241.8v39.6H568v70.9h197.4c-18.9,77.2-47.6,148.2-83.6,210.6
		C741.7,605.4,795.5,625.9,835.6,639.2"/>
	<path id="XMLID_3_" class="alipay1" d="M1012.6,844.3v6.8c0,88.3-71.8,160-160.3,160H171.8c-88.6,0-160.4-71.7-160.4-160V172.7
		c0-88.3,71.8-159.9,160.4-159.9h680.4c88.5,0,160.3,71.6,160.3,159.9l0,517.2V844.3z"/>
	<path class="alipay2" d="M835.7,639.7c-40.1-13.4-93.8-33.9-153.7-55.5c36-62.3,64.7-133.4,83.6-210.5H568.3v-70.9h241.7v-39.6H568.3
		V145.2h-98.8c-17.3,0-17.3,16.9-17.3,16.9v101.1H207.8v39.6h244.4v70.9H250.4v39.5h391.5c-14.3,49.2-33.6,95.4-56.4,137.4
		c-127-41.7-262.6-75.7-347.7-54.7c-54.5,13.3-89.5,37.3-110.2,62.2c-94.6,114.7-26.7,289,173.1,289c118,0,231.8-65.7,320-173.8
		c131.6,63,392,171.3,392,171.3l0-154.3C1012.6,690.3,979.9,687.8,835.7,639.7 M281.9,780.5c-155.6,0-201.7-122.3-124.7-189.3
		c25.6-22.6,72.6-33.7,97.7-36.1C347.3,546,433,581.2,534,630.4C462.9,722.8,372.5,780.5,281.9,780.5z"/>
</g>
</svg>
