<?xml version="1.0" encoding="utf-8"?>
<!-- Generator: Adobe Illustrator 19.0.0, SVG Export Plug-In . SVG Version: 6.00 Build 0)  -->
<svg version="1.1" id="图层_1" xmlns="http://www.w3.org/2000/svg" xmlns:xlink="http://www.w3.org/1999/xlink" x="0px" y="0px"
	 viewBox="0 0 1024 1024" style="enable-background:new 0 0 1024 1024;" xml:space="preserve">
<g>
	<path class="st0" d="M512,19.2C239.8,19.2,19.2,239.8,19.2,512s220.6,492.8,492.8,492.8c272.2,0,492.8-220.7,492.8-492.8
		S784.2,19.2,512,19.2z M512,943.2C273.9,943.2,80.8,750.1,80.8,512S273.9,80.8,512,80.8c238.1,0,431.2,193.1,431.2,431.2
		S750.1,943.2,512,943.2z"/>
	<path id="XMLID_1_" class="st0" d="M651.4,249.1c-12-12.1-31.5-12.1-43.6,0L372,484.9c-7.4,7.4-9.7,17.5-8,27.1
		c-1.7,9.6,0.6,19.7,8,27l235.8,235.8c12,12,31.5,12,43.6,0c12-12,12-31.5,0-43.6L432.1,512l219.3-219.3
		C663.5,280.6,663.5,261.1,651.4,249.1z"/>
</g>
</svg>
