<?xml version="1.0" encoding="utf-8"?>
<!-- Generator: Adobe Illustrator 19.0.0, SVG Export Plug-In . SVG Version: 6.00 Build 0)  -->
<svg version="1.1" id="图层_1" xmlns="http://www.w3.org/2000/svg" xmlns:xlink="http://www.w3.org/1999/xlink" x="0px" y="0px"
	 viewBox="0 0 1024 1024" style="enable-background:new 0 0 1024 1024;" xml:space="preserve">
<g>
	<path class="st0" d="M512,19.2c272.2,0,492.8,220.7,492.8,492.8S784.2,1004.8,512,1004.8c-272.2,0-492.8-220.7-492.8-492.8
		S239.8,19.2,512,19.2z M512,943.2c238.2,0,431.2-193.1,431.2-431.2S750.1,80.8,512,80.8C273.8,80.8,80.8,273.9,80.8,512
		S273.8,943.2,512,943.2z"/>
	<path id="XMLID_1_" class="st0" d="M372.6,249.1c12-12.1,31.5-12.1,43.6,0L652,484.9c7.4,7.4,9.7,17.5,8,27.1
		c1.7,9.6-0.6,19.7-8,27L416.1,774.9c-12,12-31.5,12-43.6,0c-12-12-12-31.5,0-43.6L591.9,512L372.6,292.7
		C360.5,280.6,360.5,261.1,372.6,249.1z"/>
</g>
</svg>
