<?xml version="1.0" encoding="utf-8"?>
<!-- Generator: Adobe Illustrator 19.0.0, SVG Export Plug-In . SVG Version: 6.00 Build 0)  -->
<svg version="1.1" id="图层_1" xmlns="http://www.w3.org/2000/svg" xmlns:xlink="http://www.w3.org/1999/xlink" x="0px" y="0px"
	 viewBox="0 0 1024 1024" style="enable-background:new 0 0 1024 1024;" xml:space="preserve">
<path id="XMLID_27_" class="st0" d="M1015.4,576c-34.9,0-63.2-28.3-63.2-63.2s28.3-63.2,63.2-63.2c2.2,0,4.4,0.4,6.5,0.7v-156
	c0-45.2-37.5-81.9-83.7-81.9H87.7C41.5,212.4,4,249.1,4,294.3v39v46.2v70.6c1.5-0.1,3-0.5,4.5-0.5c34.9,0,63.2,28.3,63.2,63.2
	S43.4,576,8.5,576c-1.5,0-3-0.3-4.5-0.5v155.9c0,45.2,37.5,81.9,83.7,81.9h726H861h77.3c46.2,0,83.7-36.7,83.7-81.9v-156
	C1019.7,575.6,1017.6,576,1015.4,576z M542.7,539.4c-12.8,15.8-31.3,29.6-69.9,45.4c-3.8,1.5-8,0.2-10.3-3.1l-17.6-26.3
	c-2.2-3.3-1.7-7.6,1.2-10.4c30.1-28.4,50.4-39.6,70.4-44.7c4-0.6,7.3-0.4,9.3,2.6l18.2,27.2C546,533.1,544.9,536.1,542.7,539.4z
	 M690.3,395c-18.8,20.3-40.1,38.2-63.5,53.2l-42.3,27.1l-126.2,26.2c-5.8,1.2-11.2,3.4-16.1,6.6l-45.8,29.4c-2.3,1.5-3.7,4.2-3.5,7
	s1.8,5.4,4.3,6.7l37.8,20.2l-16.1,10.3c-15.1,9.7-31.6,16.9-49,21.5l-101,26.5c-18.2,4.8-37.6,2-53.7-7.6l-87.5-52.6
	c-2.9-1.7-4.6-4.8-4.7-8c-0.1-3.3,1.6-6.4,4.4-8.3l10.8-6.9c8.6-5.5,19-7.7,29.1-6l92.7,14.8c8.3,1.3,16.8-0.4,23.8-5l271-174
	c33.2-21.3,73.5-29.3,112.5-22.3l9.2,1.7c8.7,1.6,15.9,7.6,18.7,15.8C698.1,379.5,696.2,388.6,690.3,395z M860.9,761.3h-43.3v-65.8
	h43.3V761.3z M860.9,650.2h-43.3v-65.8h43.3V650.2z M860.9,539.1h-43.3v-65.8h43.3V539.1z M860.9,428h-43.3v-65.8h43.3V428z
	 M860.9,316.9h-43.3v-65.8h43.3V316.9z"/>
</svg>
