<?xml version="1.0" encoding="utf-8"?>
<!-- Generator: Adobe Illustrator 19.0.0, SVG Export Plug-In . SVG Version: 6.00 Build 0)  -->
<svg version="1.1" id="图层_1" xmlns="http://www.w3.org/2000/svg" xmlns:xlink="http://www.w3.org/1999/xlink" x="0px" y="0px"
	 viewBox="0 0 1024 1024" style="enable-background:new 0 0 1024 1024;" xml:space="preserve">
<g>
	<path class="st0" d="M512,14.5C237.2,14.5,14.5,237.2,14.5,512s222.7,497.5,497.5,497.5s497.5-222.7,497.5-497.5
		S786.8,14.5,512,14.5z M512,979.6C254.1,979.6,44.3,769.9,44.3,512S254.1,44.3,512,44.3s467.7,209.8,467.7,467.6
		C979.7,769.9,769.9,979.6,512,979.6z"/>
	<polygon class="st0" points="536.3,318.3 502.8,318.3 502.8,519.6 301.5,519.6 301.5,553.1 502.8,553.1 502.8,754.3 536.3,754.3 
		536.3,553.1 737.5,553.1 737.5,519.6 536.3,519.6 	"/>
</g>
</svg>
