<?xml version="1.0" encoding="utf-8"?>
<!-- Generator: Adobe Illustrator 19.0.0, SVG Export Plug-In . SVG Version: 6.00 Build 0)  -->
<svg version="1.1" id="图层_1" xmlns="http://www.w3.org/2000/svg" xmlns:xlink="http://www.w3.org/1999/xlink" x="0px" y="0px"
	 viewBox="0 0 1024 1024" style="enable-background:new 0 0 1024 1024;" xml:space="preserve">
<path class="st0" d="M857.2,999.1H166.8c-34.7,0-62.8-29.1-62.8-64.9V187.3c0-35.9,28.1-64.9,62.8-64.9h31.4v97.4
	c0,35.9,28.1,65,62.8,65h62.8c34.7,0,62.8-29.1,62.8-65v-97.4h251v97.4c0,35.9,28.1,65,62.8,65H763c34.7,0,62.8-29.1,62.8-65v-97.4
	h31.4c34.7,0,62.8,29.1,62.8,64.9v746.9C919.9,970,891.8,999.1,857.2,999.1L857.2,999.1z M386.5,349.6H198.2V512h188.3V349.6
	L386.5,349.6z M386.5,544.5H198.2v162.4h188.3V544.5L386.5,544.5z M386.5,739.3H198.2v162.4h188.3V739.3L386.5,739.3z M606.1,349.6
	H417.9V512h188.3V349.6L606.1,349.6z M606.1,544.5H417.9v162.4h188.3V544.5L606.1,544.5z M606.1,739.3H417.9v162.4h188.3V739.3
	L606.1,739.3z M825.8,349.6H637.5V512h188.3V349.6L825.8,349.6z M825.8,544.5H637.5v162.4h188.3V544.5L825.8,544.5z M825.8,739.3
	H637.5v162.4h188.3V739.3L825.8,739.3z M731.7,252.2c-34.7,0-62.8-29.1-62.8-65V89.9c0-35.8,28.1-64.9,62.8-64.9
	s62.8,29.1,62.8,64.9v97.4C794.4,223.1,766.3,252.2,731.7,252.2L731.7,252.2z M292.3,252.2c-34.7,0-62.8-29.1-62.8-65V89.9
	c0-35.8,28.1-64.9,62.8-64.9s62.8,29.1,62.8,64.9v97.4C355.1,223.1,327,252.2,292.3,252.2L292.3,252.2z"/>
</svg>
