<?xml version="1.0" encoding="utf-8"?>
<!-- Generator: Adobe Illustrator 19.0.0, SVG Export Plug-In . SVG Version: 6.00 Build 0)  -->
<svg version="1.1" id="图层_1" xmlns="http://www.w3.org/2000/svg" xmlns:xlink="http://www.w3.org/1999/xlink" x="0px" y="0px"
	 viewBox="0 0 1024 1024" style="enable-background:new 0 0 1024 1024;" xml:space="preserve">
<g id="XMLID_15_">
	<path id="XMLID_17_" class="st0" d="M513,9.8C235.2,9.8,10,235,10,512.8s225.2,503,503,503s503-225.2,503-503S790.8,9.8,513,9.8z
		 M513,921.5c-225.7,0-408.7-182.9-408.7-408.7c0-225.7,182.9-408.7,408.7-408.7c225.7,0,408.7,182.9,408.7,408.7
		C921.7,738.5,738.7,921.5,513,921.5z"/>
	<path id="XMLID_16_" class="st0" d="M717.3,465.6H623h-62.9V229.9c0-26-21.1-47.2-47.2-47.2c-26.1,0-47.2,21.1-47.2,47.2v282.9
		c0,26,21.1,47.2,47.2,47.2h47.2H623h94.3c26.1,0,47.2-21.1,47.2-47.2C764.5,486.7,743.4,465.6,717.3,465.6z"/>
</g>
</svg>
