<?xml version="1.0" encoding="utf-8"?>
<!-- Generator: Adobe Illustrator 19.0.0, SVG Export Plug-In . SVG Version: 6.00 Build 0)  -->
<svg version="1.1" id="图层_1" xmlns="http://www.w3.org/2000/svg" xmlns:xlink="http://www.w3.org/1999/xlink" x="0px" y="0px"
	 viewBox="0 0 1024 1024" style="enable-background:new 0 0 1024 1024;" xml:space="preserve">
<path class="st0" d="M987.4,539.3c-12.2,8.5-34.3,21.5-87.2,40c-1.6,11.8-3.8,23.5-6.5,35c5.4,4.4,10.9,8.8,16.5,13.3l41.5,33.5
	c24.2,19.4,30.6,53.5,15.1,80.4L927,810.6c-11.5,19.9-32.5,31.4-54.4,31.4c-7.6,0-15.3-1.4-22.7-4.3L800,818.4
	c-6.6-2.6-13.1-5.1-19.5-7.5c-10.6,10-21.8,19.3-33.5,28.1c1.3,6.9,2.7,13.8,4.1,20.9l10.3,52.3c6.1,30.4-11,60.7-40.1,71.3
	l-74.9,27.3c-7.1,2.6-14.3,3.8-21.5,3.8c-22.4,0-43.8-12-55-32.6L544,935.1c-3.4-6.2-6.8-12.3-10.1-18.3c-7.4,0.5-14.7,0.7-21.9,0.7
	s-14.5-0.2-21.9-0.7c-3.3,6-6.7,12.1-10.1,18.3L454.2,982c-11.3,20.6-32.7,32.6-55,32.6c-7.2,0-14.4-1.2-21.5-3.8l-74.9-27.3
	c-29.1-10.6-46.1-40.9-40.1-71.3l10.3-52.3c1.4-7.1,2.7-14,4.1-20.9c-11.7-8.8-22.9-18.1-33.5-28.1c-6.4,2.5-12.9,5-19.5,7.5
	l-49.9,19.3c-7.5,2.9-15.1,4.3-22.7,4.3c-21.9,0-42.9-11.5-54.4-31.4l-39.9-69.1c-15.5-26.9-9.1-61,15.1-80.4l41.5-33.5
	c5.6-4.5,11.1-9,16.5-13.3c-2.7-11.6-4.9-23.3-6.6-35c-52.9-18.5-75-31.4-87.2-40c-20.1-14-30.3-38.4-26-62.5l13.8-78.6
	c4.3-24.1,22.1-43.6,45.8-49.9c19.9-5.2,47.6-7.8,84.7-7.8c3.5,0,7.2,0,10.8,0.1c4.3-8.2,9-16.2,13.8-24
	c-21.7-36.6-35.2-65.1-41.1-86.8c-6.4-23.6,1.4-48.8,20.1-64.5l61-51.5c11.5-9.8,26-14.8,40.5-14.8c9.1,0,18.2,2,26.7,6
	c20.5,9.7,45.8,27.4,76.9,54.1c9-3.8,17.8-7.3,26.6-10.3c6.6-41,14.2-69.6,21.6-94.4c7.9-26.7,32.4-45,60.2-45h79.7
	c27.8,0,52.3,18.3,60.2,45c7.5,25.4,15.3,54.7,22,97.3c8.5,2.8,16.8,5.8,25.1,9.2c32.5-28,57.5-45.7,78-55.4c8.6-4,17.7-6,26.8-6
	c14.5,0,28.8,5,40.3,14.7l61.1,51.3c18.8,15.7,26.7,41,20.2,64.6c-6,22-19.1,49.7-41.1,86.7c4.9,7.8,9.5,15.8,13.8,23.9
	c3.7,0,7.3-0.1,10.8-0.1c37.1,0,64.8,2.6,84.7,7.8c23.7,6.2,41.6,25.7,45.8,49.8l13.8,78.6C1017.7,500.9,1007.5,525.3,987.4,539.3
	L987.4,539.3z M937.8,409.2c-14.8-3.9-38.6-5.7-68.7-5.7c-7.9,0-16.2,0.1-24.9,0.4c-8.1,0.2-16.7,0.6-25.5,1
	c-12.2-31.2-28.9-60.2-49.5-85.9c4.7-7.4,9.4-14.7,13.6-21.6c22-35.8,37.1-65.1,42.2-83.8l-61.1-51.3c-17.5,8.3-43.7,28.2-75.1,56.1
	c-6,5.3-12.3,11.1-18.7,17c-28.8-15.8-60.1-27.3-93.3-33.9c-1.1-8.6-2.2-23.6-3.4-31.5c-6.2-41.6-13.4-70.3-21.5-97.8h-79.7
	c-8.1,27.5-15.4,56.2-21.5,97.8c-1.2,8-2.3,19.7-3.4,28.3c-33.2,6.6-64.6,19.8-93.3,35.6c-6.4-5.9-12.7-10.9-18.7-16.2
	c-31.4-27.9-57.6-47.5-75.1-55.7L199,213.4c5.1,18.7,20.2,48.1,42.2,83.9c4.2,6.9,8.9,14.2,13.6,21.6c-20.6,25.8-37.3,54.7-49.6,86
	c-8.7-0.4-17.4-0.8-25.5-1.1c-8.7-0.2-17-0.4-24.9-0.4c-30.1,0-53.9,1.8-68.7,5.8l-13.8,78.6c17.4,12.1,52.1,26.2,97.6,40.8
	c4.1,1.3,8.6,2.6,12.8,4c0.8,36.7,7.7,71.7,19.6,104.5c-0.5,0.4-0.9,0.7-1.4,1.1c-27.4,21.9-56.3,45.5-89.4,72l39.8,69.1
	c39.6-15.4,74.4-28.7,107.1-41.5c0.5-0.2,1-0.4,1.5-0.6c24.5,29.1,53.9,53.7,86.9,72.8c-0.1,0.6-0.2,1.1-0.4,1.7
	c-7,34.4-14,71.1-22.3,112.8l74.9,27.3c20.4-37.2,38.6-69.8,55.3-100.7c0.3-0.5,0.6-1,0.9-1.6c18.4,3.2,37.3,5.2,56.6,5.2
	c19.4,0,38.2-2,56.6-5.2c0.3,0.6,0.6,1.1,0.9,1.6c16.8,30.8,34.9,63.4,55.4,100.7l74.9-27.3c-8.3-41.7-15.3-78.3-22.2-112.8
	c-0.1-0.6-0.3-1.1-0.4-1.7c33-19.2,62.5-43.8,86.9-72.8c0.5,0.2,1,0.4,1.5,0.6c32.6,12.8,67.5,26.1,107,41.5l39.9-69.1
	c-33.1-26.6-62-50.1-89.4-72c-0.5-0.4-0.9-0.7-1.4-1.1c11.8-32.7,18.7-67.8,19.6-104.5c4.3-1.3,8.8-2.6,12.8-4
	c45.5-14.6,80.2-28.7,97.6-40.8L937.8,409.2L937.8,409.2z M512.3,700.4c-104.1,0-188.4-84.4-188.4-188.5s84.3-188.5,188.4-188.5
	s188.4,84.4,188.4,188.5S616.3,700.4,512.3,700.4L512.3,700.4z M512.3,386.3c-69.3,0-125.6,56.4-125.6,125.7S443,637.6,512.3,637.6
	S637.9,581.3,637.9,512S581.5,386.3,512.3,386.3L512.3,386.3z"/>
</svg>
